# xmcd
#
# Track frame offsets:
#	150
#	15602
#	39452
#	68727
#	87227
#	103987
#	127807
#	145220
#	165527
#	181615
#	204247
#	222837
#	234252
#	245627
#
# Disc length: 3705 seconds
#
# Revision: 2
# Processed by: cddbd v1.4PL0 Copyright (c) Steve Scherf et al.
# Submitted via: audiograbber 1.81.03
#
DISCID=b40e770e
DTITLE=Various Artist - A Few Degrees Cooler
DYEAR=1995
DGENRE=Blues
TTITLE0=Radio Kings - I'm Trying
TTITLE1=Tony Sarno - Blue Shadows
TTITLE2=Mark May - Call On The Blues
TTITLE3=Blind Mississippi Morris - Mean Streets
TTITLE4=Cold Blue Steel - Headed Outta Of Memphis
TTITLE5=Reunion Blues Band - Mojo Workin'
TTITLE6=Bluebirds - Swamp Stomp
TTITLE7=Lynn White - A Losing Battle
TTITLE8=Coolers - Love-A-Holic
TTITLE9=Mark May - You're Leaving Baby
TTITLE10=Tony Sarno - Cry Baby Blues
TTITLE11=Radio Kings - Running With The Blues
TTITLE12=Blind Mississippi Morris - Beale St. Tonight
TTITLE13=Reunion Blues Band - Baby What You Want Me To Do
EXTD=
EXTT0=Radio Kings\n
EXTT1=Tony Sarno\n
EXTT2=Mark May\n
EXTT3=Blind Mississippi Morris\n
EXTT4=Cold Blue Steel\n
EXTT5=Reunion Blues Band\n
EXTT6=Bluebirds\n
EXTT7=Lynn White\n
EXTT8=Coolers\n
EXTT9=Mark May\n
EXTT10=Tony Sarno\n
EXTT11=Radio Kings\n
EXTT12=Blind Mississippi Morris\n
EXTT13=Reunion Blues Band\n
PLAYORDER=
